Coordinates
version=1
nRows=14
nColumns=40
inDegrees=yes

Units are S.I. units (second, meters, Newtons, ...)
If the header above contains a line with 'inDegrees', this indicates whether rotational values are in degrees (yes) or radians (no).

endheader
time	pelvis_tilt	pelvis_list	pelvis_rotation	pelvis_tx	pelvis_ty	pelvis_tz	hip_flexion_r	hip_adduction_r	hip_rotation_r	knee_angle_r	knee_angle_r_beta	ankle_angle_r	subtalar_angle_r	mtp_angle_r	hip_flexion_l	hip_adduction_l	hip_rotation_l	knee_angle_l	knee_angle_l_beta	ankle_angle_l	subtalar_angle_l	mtp_angle_l	lumbar_extension	lumbar_bending	lumbar_rotation	arm_flex_r	arm_add_r	arm_rot_r	elbow_flex_r	pro_sup_r	wrist_flex_r	wrist_dev_r	arm_flex_l	arm_add_l	arm_rot_l	elbow_flex_l	pro_sup_l	wrist_flex_l	wrist_dev_l
      8.50000000	      9.57719691	     -3.30962236	    179.71154829	      0.35042327	      0.82007973	     -0.62926207	     50.66176317	     -5.63774897	      6.85327845	     48.53932202	      0.84717099	     15.53322818	      0.00000000	      0.00000000	     50.79678947	    -11.88932650	    -13.58353693	     52.80047156	      0.92154208	      8.09871628	      0.00000000	      0.00000000	    -60.53399573	     -3.14451310	     -2.79087050	     57.63777090	      0.67583270	     29.11747477	      2.76486763	      7.91374874	      0.00000000	      0.00000000	     65.07618925	     -8.44489071	     82.30466931	      3.51323562	     85.50259970	      0.00000000	      0.00000000
      8.50500000	      9.67628016	     -3.30358186	    179.70055365	      0.35013598	      0.82131451	     -0.62930842	     50.59305833	     -5.66691545	      6.74785490	     48.25299730	      0.84217368	     15.36989439	      0.00000000	      0.00000000	     50.73225400	    -11.89116741	    -13.68944968	     52.55601978	      0.91727559	      8.00128410	      0.00000000	      0.00000000	    -60.28507687	     -3.15015215	     -2.78195681	     57.42825818	      0.68923914	     29.05227079	      2.74362604	      7.91372979	      0.00000000	      0.00000000	     64.86313374	     -8.43712606	     82.31128789	      3.52411939	     85.50461529	      0.00000000	      0.00000000
      8.51000000	      9.74473693	     -3.23518236	    179.71480121	      0.35001519	      0.82264677	     -0.62911107	     50.39379345	     -5.71313777	      6.54842888	     47.75666925	      0.83351112	     14.95396425	      0.00000000	      0.00000000	     50.56177718	    -11.75132305	    -13.44013852	     52.04781737	      0.90840578	      7.76827677	      0.00000000	      0.00000000	    -60.04926785	     -3.06953703	     -2.70831498	     57.29262214	      0.67431993	     28.94124685	      2.78975653	      7.93067897	      0.00000000	      0.00000000	     64.67796076	     -8.43579743	     82.29834693	      3.52011483	     85.49639141	      0.00000000	      0.00000000
      8.51500000	      9.75057999	     -3.16791747	    179.71010717	      0.34986559	      0.82397892	     -0.62883053	     50.20228104	     -5.76586703	      6.33336972	     47.40821831	      0.82742950	     14.66062634	      0.00000000	      0.00000000	     50.40217215	    -11.71795847	    -13.37348393	     51.76130749	      0.90340524	      7.62207274	      0.00000000	      0.00000000	    -59.87716024	     -2.99465373	     -2.64734855	     57.14914599	      0.66598626	     28.86174798	      2.78208680	      7.93726754	      0.00000000	      0.00000000	     64.47222159	     -8.42366439	     82.29278924	      3.51550462	     85.49037622	      0.00000000	      0.00000000
      8.52000000	      9.74148682	     -3.08202890	    179.70571491	      0.34977938	      0.82533810	     -0.62855626	     49.96468464	     -5.79766668	      6.09294805	     46.99939518	      0.82029419	     14.31894889	      0.00000000	      0.00000000	     50.21499211	    -11.64952519	    -13.21036732	     51.40420952	      0.89717271	      7.47133666	      0.00000000	      0.00000000	    -59.72646997	     -2.90630990	     -2.55881329	     57.03494260	      0.63549268	     28.78733308	      2.77882573	      7.94476562	      0.00000000	      0.00000000	     64.29833173	     -8.39106845	     82.27679683	      3.51945968	     85.48129030	      0.00000000	      0.00000000
      8.52500000	      9.80323412	     -3.02193165	    179.69213329	      0.34960304	      0.82655712	     -0.62848132	     49.84449975	     -5.84405693	      5.90788559	     46.69950342	      0.81506009	     14.12471336	      0.00000000	      0.00000000	     50.10314092	    -11.68396980	    -13.29284633	     51.13128984	      0.89240936	      7.38199324	      0.00000000	      0.00000000	    -59.49552795	     -2.86534885	     -2.47936527	     56.86127063	      0.63492554	     28.73395106	      2.75190678	      7.94404081	      0.00000000	      0.00000000	     64.11304698	     -8.39410618	     82.25965945	      3.54174172	     85.48262257	      0.00000000	      0.00000000
      8.53000000	      9.89444426	     -3.00164604	    179.70967510	      0.34936834	      0.82798734	     -0.62858110	     49.66192741	     -5.87883613	      5.72259890	     46.17305965	      0.80587192	     13.69753940	      0.00000000	      0.00000000	     49.93648557	    -11.55523467	    -13.10873314	     50.62770889	      0.88362021	      7.10937140	      0.00000000	      0.00000000	    -59.26423958	     -2.84393343	     -2.46844265	     56.72429241	      0.65971166	     28.62855078	      2.79836590	      7.96076720	      0.00000000	      0.00000000	     63.93491027	     -8.40037874	     82.19243110	      3.52547299	     85.46876550	      0.00000000	      0.00000000
      8.53500000	      9.94180294	     -2.96353468	    179.70864327	      0.34918339	      0.82940418	     -0.62854529	     49.44669817	     -5.93530647	      5.55019575	     45.72911790	      0.79812367	     13.35634670	      0.00000000	      0.00000000	     49.77238563	    -11.51140055	    -13.08040168	     50.23327352	      0.87673602	      6.88535373	      0.00000000	      0.00000000	    -59.06681900	     -2.80888053	     -2.41809843	     56.58428346	      0.66325164	     28.51852034	      2.80636760	      7.97131790	      0.00000000	      0.00000000	     63.74436155	     -8.40181277	     82.12565963	      3.52721666	     85.45793662	      0.00000000	      0.00000000
      8.54000000	      9.91193742	     -2.85610487	    179.70226966	      0.34908017	      0.83098700	     -0.62820833	     49.14794427	     -5.96626585	      5.21610880	     45.25141791	      0.78978623	     12.99377281	      0.00000000	      0.00000000	     49.56516795	    -11.50844778	    -12.98166752	     49.90806573	      0.87106007	      6.63776646	      0.00000000	      0.00000000	    -58.96016697	     -2.69522413	     -2.30178426	     56.49323348	      0.62002039	     28.42490526	      2.79916724	      7.97900892	      0.00000000	      0.00000000	     63.55500903	     -8.35174476	     82.05586816	      3.55007670	     85.44628793	      0.00000000	      0.00000000
      8.54500000	      9.93934951	     -2.79500390	    179.70058561	      0.34895205	      0.83239787	     -0.62810571	     48.91882738	     -6.01447482	      5.00749484	     44.79684407	      0.78185242	     12.66210427	      0.00000000	      0.00000000	     49.38899153	    -11.48204767	    -12.93012721	     49.53518832	      0.86455213	      6.43953295	      0.00000000	      0.00000000	    -58.78100761	     -2.64067986	     -2.22819161	     56.34256652	      0.60067969	     28.34398427	      2.78420147	      7.98341020	      0.00000000	      0.00000000	     63.37444171	     -8.32371959	     82.00792836	      3.55659672	     85.44036536	      0.00000000	      0.00000000
      8.55000000	     10.03059953	     -2.76799961	    179.69883271	      0.34874263	      0.83367971	     -0.62810461	     48.78119759	     -6.07519101	      4.79120978	     44.38784504	      0.77471404	     12.35235500	      0.00000000	      0.00000000	     49.29103091	    -11.44610561	    -12.90260417	     49.18474972	      0.85843582	      6.20930101	      0.00000000	      0.00000000	    -58.53206808	     -2.62588165	     -2.18769433	     56.15504101	      0.60638975	     28.26580535	      2.77128359	      7.98645035	      0.00000000	      0.00000000	     63.14797895	     -8.31458470	     81.98083632	      3.55547794	     85.43520791	      0.00000000	      0.00000000
      8.55500000	     10.15174589	     -2.79836136	    179.70214082	      0.34847567	      0.83493454	     -0.62823093	     48.67818206	     -6.16492369	      4.64635770	     43.98373293	      0.76766096	     12.04392910	      0.00000000	      0.00000000	     49.18802879	    -11.37586288	    -12.94427290	     48.79725972	      0.85167285	      5.96216029	      0.00000000	      0.00000000	    -58.24863778	     -2.66204984	     -2.19532937	     55.94272360	      0.63219822	     28.18327647	      2.76285410	      7.98786880	      0.00000000	      0.00000000	     62.93519215	     -8.31365618	     81.97464170	      3.54477820	     85.43429481	      0.00000000	      0.00000000
      8.56000000	     10.19665781	     -2.71589731	    179.69857751	      0.34832671	      0.83642522	     -0.62800474	     48.46201726	     -6.21083854	      4.33540167	     43.52730741	      0.75969483	     11.73276559	      0.00000000	      0.00000000	     49.05464780	    -11.35704375	    -12.86405267	     48.45620002	      0.84572023	      5.72779077	      0.00000000	      0.00000000	    -58.05132874	     -2.58387566	     -2.09851922	     55.80157596	      0.60286533	     28.13278252	      2.73978054	      7.98364511	      0.00000000	      0.00000000	     62.74423198	     -8.27752726	     81.98103214	      3.55540815	     85.44048535	      0.00000000	      0.00000000
      8.56500000	     10.27663698	     -2.65817816	    179.69699970	      0.34817344	      0.83767502	     -0.62804632	     48.31314883	     -6.23735646	      4.11415645	     43.11208792	      0.75244788	     11.40541655	      0.00000000	      0.00000000	     48.94546038	    -11.30321040	    -12.78933316	     48.06262295	      0.83885102	      5.51955908	      0.00000000	      0.00000000	    -57.80378018	     -2.55403193	     -2.03235900	     55.62222386	      0.59803418	     28.08934044	      2.72971801	      7.98076321	      0.00000000	      0.00000000	     62.55090429	     -8.27483221	     81.98994736	      3.54248174	     85.44198401	      0.00000000	      0.00000000
